# xmcd
#
# Track frame offsets: 
#        150
#        10839
#        21592
#        33824
#        44862
#        58140
#        70780
#        83585
#        95222
#        106582
#        119519
#        132062
#        142788
#        156073
#        167224
#        177696
#        191143
#        202706
#        214260
#        225362
#        236343
#        247531
#        258584
#        269994
#        278792
#        286998
#        299000
#        311158
#        322398
#
# Disc length: 4351 seconds
#
# Revision: 0
# Processed by: cddbd v1.5.2PL0 Copyright (c) Steve Scherf et al.
# Submitted via: ExactAudioCopy v0.95b3
#
DISCID=b710fd1d
DTITLE=The Monkees - The Monkees Complete 05 of 28
DYEAR=1900
DGENRE=
TTITLE0=I Don't Think You Know Me (2nd version)
TTITLE1=I Don't Think You Know Me (2nd version alt. mix)
TTITLE2=I'll Be Back Up On My Feet (original version)
TTITLE3=I'll Spend My Life With You (original version)
TTITLE4=I'm A Believer (early version)
TTITLE5=I'm A Believer (backing track)
TTITLE6=I'm A Believer (4.1 composite)
TTITLE7=Laugh (alt. mix 1)
TTITLE8=Laugh (alt. mix 2)
TTITLE9=Look Out (Here Comes Tomorrow) (alt. mix 1)
TTITLE10=Look Out (Here Comes Tomorrow) (alt. mix 2)
TTITLE11=Look Out (Here Comes Tomorrow) (alt. mix 3)
TTITLE12=Look Out (Here Comes Tomorrow) (alt. mix 4)
TTITLE13=Mary, Mary (alt. mix)
TTITLE14=Mary, Mary (4.1 composite)
TTITLE15=Mr. Webster (original version)
TTITLE16=Sometime In The Morning (alt. mix 1)
TTITLE17=Sometime In The Morning (alt. mix 2)
TTITLE18=(I'm Not Your) Steppin' Stone (alt. mix)
TTITLE19=(I'm Not Your) Steppin' Stone (backing track)
TTITLE20=(I'm Not Your) Steppin' Stone (from acetate)
TTITLE21=(I'm Not Your) Steppin' Stone (single mix)
TTITLE22=Teeny Tiny Gnome
TTITLE23=The Kind Of Girl I Could Love (alt. mix)
TTITLE24=The Kind Of Girl I Could Love (from acetate)
TTITLE25=Through The Looking Glass (original version)
TTITLE26=Your Auntie Grizelda (alt. mix)
TTITLE27=Your Auntie Grizelda (from acetate)
TTITLE28=Your Auntie Grizelda (partial backing track)
EXTD=
EXTT0=
EXTT1=
EXTT2=
EXTT3=
EXTT4=
EXTT5=
EXTT6=
EXTT7=
EXTT8=
EXTT9=
EXTT10=
EXTT11=
EXTT12=
EXTT13=
EXTT14=
EXTT15=
EXTT16=
EXTT17=
EXTT18=
EXTT19=
EXTT20=
EXTT21=
EXTT22=
EXTT23=
EXTT24=
EXTT25=
EXTT26=
EXTT27=
EXTT28=
PLAYORDER=
